<svg xmlns="http://www.w3.org/2000/svg" viewBox="0 0 306.14767 241.42196"><defs><style>.a7f1d8f4-6490-4d9b-b377-7967ea140f15{fill:#567132;}</style></defs><g id="bb73dba5-d878-4566-abf1-fc55eb592ffa" data-name="Livello 2"><g id="b5115536-a1a0-43a4-8465-0726a7e8672a" data-name="Layer 1"><path class="a7f1d8f4-6490-4d9b-b377-7967ea140f15" d="M158.30448,74.48388c3.52125,3.005,7.18512,5.8049,10.4497,9.01041a18.65153,18.65153,0,0,1,5.71662,11.713,17.39819,17.39819,0,0,1-6.0032,15.366,40.61292,40.61292,0,0,1-21.403,9.89,117.1586,117.1586,0,0,1-14.58805,1.1045c-4.51021.11558-7.56029-2.0245-8.87008-6.34368-2.14377-7.06923-4.37385-14.156-5.81991-21.38453a282.03947,282.03947,0,0,1-5.11091-67.3068,1.01226,1.01226,0,0,1,.00671-.1681c.478-2.22436-.22168-3.62928-2.20812-5.0771-5.47783-3.99252-5.1911-11.00385.82255-14.24822A53.50411,53.50411,0,0,1,125.405,1.77407a74.84955,74.84955,0,0,1,37.00659,1.15681,36.31935,36.31935,0,0,1,19.376,13.01569c7.3589,9.7497,7.53747,22.93147.41121,34.24464A74.38432,74.38432,0,0,1,169.12377,65.095C165.53392,68.3877,161.76865,71.48961,158.30448,74.48388ZM136.891,66.35952c7.26453-4.1621,14.05216-8.4153,19.91911-13.98244a38.84421,38.84421,0,0,0,8.293-10.74638,17.91646,17.91646,0,0,0,1.81969-5.372c.71878-5.15629-1.30108-8.70125-6.01061-11.10172-5.66561-2.88777-11.84275-3.71234-18.04991-4.36688-2.32181-.24484-4.6586-.34809-7.20161-.53124A407.09934,407.09934,0,0,0,136.891,66.35952Zm4.72984,37.20369a24.68906,24.68906,0,0,0,11.01312-2.56913c4.15509-2.48893,4.21722-7.41932.0734-9.92675-4.10122-2.48166-8.66329-2.67312-13.49536-2.617C140.03592,93.61957,140.83129,98.60966,141.62083,103.56321Z"/><path class="a7f1d8f4-6490-4d9b-b377-7967ea140f15" d="M179.82306,197.97376c2.49809,4.60692,5.08212,8.8889,7.19127,13.39285,2.276,4.86035,4.28088,9.86662,6.08679,14.92234,1.97669,5.53383-.22858,8.84283-5.90626,10.35254-7.47172,1.98674-11.52094-1.50856-14.45032-6.72614q-6.50279-11.5824-13.00814-23.1634c-.32473-.57765-.68539-1.1351-1.06754-1.76479L148.094,207.83674c.47029,4.049,1.01471,8.04272,1.3736,12.05307.26978,3.0143.41489,6.05.41177,9.076-.00451,4.31125-1.91259,7.241-5.222,8.41121-4.56666,1.61478-8.77906.715-11.58588-2.49432-2.61423-2.98917-3.60926-6.68728-4.37026-10.43159-3.60177-17.72207-6.78948-35.5216-8.63105-53.519-.86712-8.47411-1.17587-17.00841-1.62221-25.52151-.30659-5.84815,2.47165-9.90825,7.62836-12.55263a45.77244,45.77244,0,0,1,17.08158-4.77941,85.21047,85.21047,0,0,1,24.1487.86829c16.01775,3.1591,30.8671,19.08572,31.89181,36.13206.82311,13.69255-5.51708,25.6969-17.70362,32.0411C180.95643,197.40035,180.41371,197.67238,179.82306,197.97376Zm-37.71321-49.69471,4.60691,39.66309c2.89334-.66295,5.82342-1.19549,8.67093-2.01482,6.54726-1.88384,12.60825-4.7542,17.45357-9.681,7.638-7.76631,5.97208-19.24112-3.46764-24.64688C160.86146,146.7249,151.69456,147.48722,142.10985,148.27905Z"/><path class="a7f1d8f4-6490-4d9b-b377-7967ea140f15" d="M85.4558,145.47044c4.83361-.18039,9.26284-.4728,13.691-.45635a22.56807,22.56807,0,0,1,6.44128.97472c3.21074.984,4.68407,3.41729,4.72337,6.96917.03741,3.38276-1.271,5.7859-4.50037,6.70806a51.52639,51.52639,0,0,1-9.2694,1.40691c-3.69017.34968-7.4035.45592-11.1064.67354-.32652.01919-.65048.08177-1.08473.13843a438.66629,438.66629,0,0,0,2.44741,61.50745,42.2388,42.2388,0,0,0,15.76226-7.51111,36.73221,36.73221,0,0,1,5.9791-4.02793,7.79841,7.79841,0,0,1,10.831,9.61238,18.30791,18.30791,0,0,1-3.2937,5.78392c-5.898,6.85938-13.11348,11.72461-22.12551,13.5487a27.47185,27.47185,0,0,1-11.54659.0186c-6.56182-1.4699-10.99072-5.58684-13.9743-11.43081-3.30277-6.46919-4.97154-13.435-6.09953-20.54335-2.72544-17.175-2.35657-34.46428-1.776-51.754a126.703,126.703,0,0,1,2.40482-22.89692c2.36716-10.83488,9.50252-17.18372,20.49073-18.63811a47.21259,47.21259,0,0,1,26.89053,4.17843,18.70943,18.70943,0,0,1,4.45622,2.9615,7.66488,7.66488,0,0,1,2.29021,8.13617c-.82994,3.12982-3.3174,4.39894-6.19279,4.99334-4.59431.94972-9.14659.36937-13.72034-.42149a36.37437,36.37437,0,0,0-7.17049-.3247,3.4246,3.4246,0,0,0-3.26417,2.948C86.21137,140.41626,85.89548,142.85425,85.4558,145.47044Z"/><path class="a7f1d8f4-6490-4d9b-b377-7967ea140f15" d="M223.25631,27.45548c6.92731.08161,12.98232.73886,18.68064,3.32457,7.73055,3.50789,12.68856,9.66489,15.592,17.341,7.02759,18.57933,3.8944,35.62826-8.80208,50.80259C243.2442,105.47623,236.5,110.53979,228.1678,113.049a40.86227,40.86227,0,0,1-27.416-1.12072c-8.60978-3.395-13.9192-10.10857-17.20137-18.43606-7.39124-18.753-3.765-43.87631,15.8692-58.33544A37.83375,37.83375,0,0,1,223.25631,27.45548Zm17.87088,39.598q.00316-.254.00232-.50812c-.02566-7.63814-2.18785-17.54151-10.589-19.82592-8.609-2.34095-17.584,2.03379-21.58634,10.5031-3.2612,6.90093-3.505,14.22016-2.7321,21.59062a32.788,32.788,0,0,0,2.2031,8.57367,11.14164,11.14164,0,0,0,9.22179,7.23143,15.61485,15.61485,0,0,0,13.70011-4.58973A32.886,32.886,0,0,0,241.12719,67.05353Z"/><path class="a7f1d8f4-6490-4d9b-b377-7967ea140f15" d="M31.99769,143.76452c-7.1824,1.41224-14.11264,2.77813-21.045,4.13312-.71531.13982-1.44467.20662-2.16533.32094-3.77063.59815-6.49173-.75152-8.05423-4.00029a7.3632,7.3632,0,0,1,2.02516-8.97567,16.2363,16.2363,0,0,1,5.48965-2.76884c9.52534-2.589,19.06117-5.17185,28.68717-7.34127a30.0467,30.0467,0,0,1,10.1756-.21607c4.111.51984,6.60426,3.32215,7.578,7.37185a25.55436,25.55436,0,0,1-.98339,14.40628C49.922,157.878,44.50332,168.35026,39.5807,179.042c-4.47726,9.72442-8.71676,19.55807-13.05392,29.34673-.26294.59347-.46307,1.21471-.82955,2.18673,4.29665-2.14294,8.23826-4.11831,12.18871-6.07592a20.76137,20.76137,0,0,1,8.83471-2.49522c3.30489-.0675,5.54875,1.60436,7.03,4.37077a6.91448,6.91448,0,0,1-.58011,8.06137,14.927,14.927,0,0,1-4.80322,4.11533c-10.12376,4.82335-20.29211,9.56815-30.59626,13.98864a18.42641,18.42641,0,0,1-8.70492,1.28727c-6.53641-.63683-10.07853-6.34205-8.55668-13.24048A157.18485,157.18485,0,0,1,10.364,190.25229c6.72376-15.04489,13.88837-29.89328,20.86559-44.82517C31.46581,144.92156,31.69776,144.414,31.99769,143.76452Z"/><path class="a7f1d8f4-6490-4d9b-b377-7967ea140f15" d="M29.07653,68.43973a140.73406,140.73406,0,0,0,.76727,15.97113c.47392,4.61308,2.10139,9.45493,5.88571,12.13551,5.80431,4.11129,13.89246,1.85748,20.058-.10287,2.2417-.71275,4.50868-1.38073,6.80587-1.8766,3.31152-.71481,7.03211.87441,8.339,3.38595a7.67543,7.67543,0,0,1-1.974,9.33078A31.40657,31.40657,0,0,1,54.49764,114.503c-6.99653,1.58456-14.04919,2.40471-21.20435.86737C19.6172,112.43192,10.0845,100.28576,7.56771,87.9377,2.58015,63.46745,11.34464,13.16613,35.66963,9.0525c11.31014-3.39554,22.44571-.37962,29.3837,8.58777a13.94762,13.94762,0,0,1,3.10294,11.33508,5.61741,5.61741,0,0,1-8.08608,4.17823,17.10472,17.10472,0,0,1-4.0987-3.15266c-5.717-5.49787-13.21324-5.18767-18.29089,1.18533-3.70589,4.65131-5.25872,10.84952-6.445,16.55831A107.57492,107.57492,0,0,0,29.07653,68.43973Z"/><path class="a7f1d8f4-6490-4d9b-b377-7967ea140f15" d="M101.87633,88.03825a44.95744,44.95744,0,0,1-1.67482,10.57627c-1.57856,5.32937-6.72795,8.13-12.20815,7.15678a8.53575,8.53575,0,0,1-5.92984-4.58067A27.92725,27.92725,0,0,1,78.72965,89.815c-.95614-9.48151-2.83927-38.83793.11417-50.69752a23.52536,23.52536,0,0,1,1.67593-4.56388c2.11482-4.34933,5.73013-6.3263,10.50091-6.1572,4.6047.1632,7.40772,2.802,9.03056,6.90238,1.75023,4.42216,1.88631,9.10151,1.96321,13.74742C102.13425,56.28571,102.328,78.42746,101.87633,88.03825Z"/><path class="a7f1d8f4-6490-4d9b-b377-7967ea140f15" d="M305.87959,156.363a103.88139,103.88139,0,0,1-9.48592,50.76447c-8.5185,17.86864-29.304,35.35717-58.81522,29.46418-35.88747-7.16625-35.68222-38.18984-35.68222-38.18984s-2.10327-17.48227,8.06546-15.70537c11.37042,1.98688,3.69071,18.19268,13.85709,27.87876,7.29882,6.954,35.00211,11.645,38.78989-20.44973,2.28681-19.3766-9.35771-30.84545-21.59552-30.35755-14.25892.56848-19.04585,9.69721-20.623,13.36664s-5.27573,8.81791-11.17127,6.49259-4.72-13.24476-1.09258-19.79069,13.01425-19.99732,31.89765-18.9269c15.21328.86238,20.44988,8.80209,19.65279,1.24787-.88174-8.35655-.85356-13.79276-2.84035-21.86668-1.76447-7.17044-1.42513-13.37853,6.30366-14.48279,4.9413-.706,8.49238,7.58156,9.47648,15.29665a211.62678,211.62678,0,0,1,1.14712,26.12442c-.28471,10.01022-.74149,19.0313,1.34925,19.2919,2.02832.25281,1.752-6.57294,1.86329-11.04122.15-6.02141.76906-23.772.92167-27.252s1.208-8.4186,6.82317-8.35489,5.61494,5.47,5.98767,16.01354c.36739,10.39253-1.18211,34.75409-1.99473,40.44244-.6262,4.38341-1.74965,7.98758-.25984,8.8002,1.75158.95541,2.156-3.38272,3.37489-8.93564,1.81091-8.24968,2.06069-25.14192,2.06069-25.14192s.66015-7.552,5.05075-6.68661S305.11887,149.99611,305.87959,156.363Z"/></g></g></svg>