<svg xmlns="http://www.w3.org/2000/svg" viewBox="0 0 185.60722 242.54633"><defs><style>.b36a1ebd-2cbb-4ae4-bbbb-18a141d75120{fill:#567132;}</style></defs><g id="f636c630-f606-48e9-9df5-f8a2f8883cd8" data-name="Livello 2"><g id="ed8f1157-43f0-47be-b7ca-b4a6e0c79235" data-name="Layer 1"><path class="b36a1ebd-2cbb-4ae4-bbbb-18a141d75120" d="M2.0271,84.09622C.13071,93.5827.23084,104.14645.06023,110.66172A184.01459,184.01459,0,0,0,11.198,178.143c12.34376,33.95208,47.038,69.36292,101.67954,63.82844,66.30721-6.71607,71.48859-56.43652,71.51018-56.67382.62036-6.81627,2.20876-13.5853.33288-20.40909-1.12422-4.08955-3.85576-7.979-7.86567-9.3606-6.59719-2.27306-13.64454,3.08474-16.63342,9.3903-3.43673,7.25056-2.99183,15.72213-7.138,22.67233-8.7799,14.7167-29.29771,19.59329-44.95328,14.94411-27.7844-8.25106-37.00237-41.04505-30.64355-66.73055,5.41952-21.89135,24.78387-38.24213,48.1711-33.06445A40.11715,40.11715,0,0,1,146.16752,114.694c6.08732,6.56174,7.78953,14.81418,12.54269,22.07337,2.72872,4.16742,7.14282,7.72718,12.12181,7.57566,4.76834-.14511,8.929-3.769,10.86232-8.13029s1.98594-9.32629,1.45249-14.06693a62.40789,62.40789,0,0,0-25.28-43.13423C144.547,69.4498,128.01062,66.00123,111.902,68.28881c-5.48781.77933-20.06659,3.98186-22.708,1.33412-3.77793-3.787,2.10461-16.52076,3.288-21.43607,2.1345-8.86563,4.90608-17.56268,7.1282-26.40564a30.61054,30.61054,0,0,0,1.28728-9.93277C100.34186,5.211,94.50311-.32549,87.71326.01491,70.82745.86145,67.914,31.53054,66.09712,43.63343c-2.9714,19.79386-3.36008,39.86735-6.11084,59.68762a6.77021,6.77021,0,0,1-1.23891,3.59655c-.84191.9731-2.53055,1.32423-3.39179.36819a3.43709,3.43709,0,0,1-.59952-2.31378c-.25866-22.168,3.36524-44.0447,4.06564-66.111.14388-4.53277-.584-9.298-3.29633-12.93255s-7.79714-5.75224-11.97523-3.98864c-5.00646,2.11325-6.608,8.30355-7.4579,13.67086A447.44313,447.44313,0,0,0,31.17245,86.3556c-.7096,16.48571-.29858,33.47859-.36274,49.6339-.0071,1.789-1.30335,4.18926-2.939,3.46471-.88092-.39021-1.13274-1.49868-1.26691-2.45277-1.59-11.3068-1.88415-26.43229-1.84289-37.8502.03719-10.29033.6764-16.15045.35637-27.59737a8.74262,8.74262,0,0,0-2.03066-5.356c-2.01046-2.35943-5.65226-2.84792-8.54631-1.73669C7.35309,67.221,3.80886,75.18312,2.0271,84.09622Z"/></g></g></svg>